<svg id="Capa_1" data-name="Capa 1" xmlns="http://www.w3.org/2000/svg" viewBox="0 0 512 512"><defs><style>.cls-1{fill:#242424;}</style></defs><path class="cls-1" d="M0,456.66A55.41,55.41,0,0,0,55.34,512H456.66A55.41,55.41,0,0,0,512,456.66V271H0ZM341.64,400h47.58A11.8,11.8,0,0,0,401,388.22V340.64c0-19.84,30-19.85,30,0v47.58A41.82,41.82,0,0,1,389.22,430H341.64c-19.84,0-19.85-30,0-30ZM81,340.64c0-19.84,30-19.85,30,0v47.58A11.8,11.8,0,0,0,122.78,400h47.58c19.84,0,19.85,30,0,30H122.78A41.82,41.82,0,0,1,81,388.22Z" transform="translate(0)"/><path class="cls-1" d="M456.66,0H55.34A55.41,55.41,0,0,0,0,55.34V241H512V55.34A55.41,55.41,0,0,0,456.66,0ZM170.36,110H122.78A11.8,11.8,0,0,0,111,121.78v47.58c0,19.84-30,19.85-30,0V121.78A41.82,41.82,0,0,1,122.78,80h47.58C190.2,80,190.21,110,170.36,110ZM431,169.36c0,19.84-30,19.85-30,0V121.78A11.8,11.8,0,0,0,389.22,110H341.64c-19.84,0-19.85-30,0-30h47.58A41.82,41.82,0,0,1,431,121.78Z" transform="translate(0)"/></svg>