<svg id="Layer_1" data-name="Layer 1" xmlns="http://www.w3.org/2000/svg" viewBox="0 0 50.6 34.51"><defs><style>.cls-1{fill:#242424;}</style></defs><g id="visibility"><g id="Group_17" data-name="Group 17"><g id="Group_16" data-name="Group 16"><path id="Path_39" data-name="Path 39" class="cls-1" d="M365.51,283.66a6.9,6.9,0,1,0,6.9,6.9h0A6.9,6.9,0,0,0,365.51,283.66Z" transform="translate(-340.21 -273.31)"/><path id="Path_40" data-name="Path 40" class="cls-1" d="M365.51,273.31a27.21,27.21,0,0,0-25.3,17.25,27.18,27.18,0,0,0,50.6,0A27.19,27.19,0,0,0,365.51,273.31Zm0,28.75a11.5,11.5,0,1,1,11.5-11.5h0A11.5,11.5,0,0,1,365.51,302.06Z" transform="translate(-340.21 -273.31)"/></g></g></g></svg>