<svg id="Layer_1" data-name="Layer 1" xmlns="http://www.w3.org/2000/svg" viewBox="0 0 42 42"><defs><style>.cls-1{fill:#242424;}</style></defs><g id="Group_1" data-name="Group 1"><path id="Path_28" data-name="Path 28" class="cls-1" d="M365.51,271.36a21,21,0,1,0,21,21A21,21,0,0,0,365.51,271.36Zm3.5,34.13a.87.87,0,0,1-.87.87h-5.25a.87.87,0,0,1-.88-.87V292.36h-.87a.87.87,0,0,1-.88-.87V288a.87.87,0,0,1,.88-.88h7a.87.87,0,0,1,.87.88Zm-3.5-20.13a3.5,3.5,0,1,1,3.5-3.5A3.5,3.5,0,0,1,365.51,285.36Z" transform="translate(-344.51 -271.36)"/></g></svg>