<svg id="Layer_1" data-name="Layer 1" xmlns="http://www.w3.org/2000/svg" viewBox="0 0 67.34 173.94"><defs><style>.cls-1{isolation:isolate;font-size:20px;font-family:Iceberg-Regular, Iceberg;}.cls-1,.cls-2{fill:#9aca3c;}.cls-3,.cls-4{fill:none;stroke:#fff;}.cls-3{stroke-miterlimit:10;}</style></defs><g id="polyped-logo-absolutely-final"><g id="polyped"><text class="cls-1" transform="translate(0 168.26)">polyped</text></g><path id="Path_1" data-name="Path 1" class="cls-2" d="M15,103.58l9.15-8.7H52l-9.1,8.7"/><path id="Path_2" data-name="Path 2" class="cls-2" d="M43.72,104.28v28.46l9.49-9V95.34Z"/><path id="Path_3" data-name="Path 3" class="cls-2" d="M42.69,132.73H14.61V104.65H42.69ZM24.22,122.67v5.18h1.54v-5.2Zm7.14,0v5.18h1.55v-5.2Z"/><path id="Path_4" data-name="Path 4" class="cls-2" d="M49.4,128.57l-1.26,1.21V136l1.26-1.25Z"/><path id="Path_5" data-name="Path 5" class="cls-2" d="M53.29,124.85,52,126.06v6.22L53.29,131Z"/><path id="Path_6" data-name="Path 6" class="cls-2" d="M45,132.74,43.72,134v6.21L45,138.91Z"/><path id="Path_7" data-name="Path 7" class="cls-2" d="M14.61,133.62v6.23l1.51-1.51v-4.76Z"/><line class="cls-3" x1="33.67" y1="98.45" x2="33.67"/></g><path id="Path_45" data-name="Path 45" class="cls-4" d="M33.54,57.77V98.45"/></svg>