<svg id="Layer_1" data-name="Layer 1" xmlns="http://www.w3.org/2000/svg" viewBox="0 0 67.34 116.17"><defs><style>.cls-1,.cls-2{isolation:isolate;}.cls-2{font-size:20px;font-family:Iceberg-Regular, Iceberg;}.cls-2,.cls-3{fill:#9aca3c;}.cls-4{fill:none;stroke:#fff;}</style></defs><g id="polyped-logo-absolutely-final"><g id="polyped" class="cls-1"><text class="cls-2" transform="translate(0 110.49)">polyped</text></g><path id="Path_1" data-name="Path 1" class="cls-3" d="M282.17,383.73l9.15-8.7h27.89l-9.1,8.7" transform="translate(-267.18 -337.92)"/><path id="Path_2" data-name="Path 2" class="cls-3" d="M310.9,384.43v28.46l9.49-9V375.49Z" transform="translate(-267.18 -337.92)"/><path id="Path_3" data-name="Path 3" class="cls-3" d="M309.87,412.88H281.79V384.8h28.08ZM291.4,402.82V408h1.54v-5.2Zm7.14,0V408h1.55v-5.2Z" transform="translate(-267.18 -337.92)"/><path id="Path_4" data-name="Path 4" class="cls-3" d="M316.58,408.72l-1.26,1.21v6.22l1.26-1.25Z" transform="translate(-267.18 -337.92)"/><path id="Path_5" data-name="Path 5" class="cls-3" d="M320.47,405l-1.26,1.21v6.22l1.26-1.25Z" transform="translate(-267.18 -337.92)"/><path id="Path_6" data-name="Path 6" class="cls-3" d="M312.17,412.89l-1.27,1.21v6.21l1.27-1.25Z" transform="translate(-267.18 -337.92)"/><path id="Path_7" data-name="Path 7" class="cls-3" d="M281.79,413.77V420l1.51-1.51v-4.76Z" transform="translate(-267.18 -337.92)"/></g><path id="Path_45" data-name="Path 45" class="cls-4" d="M300.72,337.92V378.6" transform="translate(-267.18 -337.92)"/></svg>