<svg id="Layer_1" data-name="Layer 1" xmlns="http://www.w3.org/2000/svg" viewBox="0 0 44.24 43.39"><defs><style>.cls-1{fill:#242424;}</style></defs><g id="map"><g id="Group_3" data-name="Group 3"><g id="Group_2" data-name="Group 2"><path id="Path_32" data-name="Path 32" class="cls-1" d="M361.13,288.17a14.11,14.11,0,0,1-1.3-2.75v14.07l4.54-7.77A13.37,13.37,0,0,1,361.13,288.17Z" transform="translate(-343.39 -270.6)"/></g></g><g id="Group_5" data-name="Group 5"><g id="Group_4" data-name="Group 4"><path id="Path_33" data-name="Path 33" class="cls-1" d="M372.32,270.6a10.62,10.62,0,0,0-10.62,10.6,10.39,10.39,0,0,0,.28,2.42v.05l.06.26,0,.05a8.35,8.35,0,0,0,.35,1.07l0,.05.09.23,0,.07c0,.08.07.15.1.22l0,.06q.17.36.36.72l0,.05.11.19.06.09.11.18.06.1.12.18.06.09.25.34,0,.07.12.15.09.11.11.14.1.12.12.13.11.12.11.12.18.18.12.12.17.16.1.09.15.13.11.1.16.13.1.08.19.15.08.06.27.19.08,0,.21.14.1.07.2.11.11.07.2.11.1.06.31.16,1.84,2.83L371,296l.21.32a1.26,1.26,0,0,0,1.76.37,1.22,1.22,0,0,0,.38-.37l.21-.32.12-.19,1.46-2.24,1.85-2.86.31-.16.1-.06.21-.11.11-.07.19-.12.1-.06.2-.13.1-.06.27-.2.07,0,.2-.15.11-.09.15-.13.12-.1.14-.12.11-.1.14-.13.11-.1.21-.22.12-.13.1-.11.13-.14.09-.11.13-.15.07-.1.13-.17.05-.06c.16-.21.31-.43.45-.65l0,0a2.39,2.39,0,0,1,.13-.21l0-.06.13-.22,0,0a10.17,10.17,0,0,0,.51-1.05h0c0-.09.08-.18.11-.27v0a11.42,11.42,0,0,0,.5-1.73h0a10.61,10.61,0,0,0-10.4-12.7Zm0,16.38a5.76,5.76,0,1,1,5.76-5.76,5.76,5.76,0,0,1-5.76,5.76Z" transform="translate(-343.39 -270.6)"/></g></g><g id="Group_7" data-name="Group 7"><g id="Group_6" data-name="Group 6"><path id="Path_34" data-name="Path 34" class="cls-1" d="M386.66,284.25l-1.45-.35a13.25,13.25,0,0,1-6.4,8.78l-1.94,3,4.55,5.56h6.2V285.49A1.28,1.28,0,0,0,386.66,284.25Z" transform="translate(-343.39 -270.6)"/></g></g><g id="Group_9" data-name="Group 9"><g id="Group_8" data-name="Group 8"><path id="Path_35" data-name="Path 35" class="cls-1" d="M345,280.85a1.27,1.27,0,0,0-1.54.93,1.1,1.1,0,0,0,0,.31v12.33h6.81a1.3,1.3,0,0,1,.91.38l6.18,6.29V283.86Z" transform="translate(-343.39 -270.6)"/></g></g><g id="Group_11" data-name="Group 11"><g id="Group_10" data-name="Group 10"><path id="Path_36" data-name="Path 36" class="cls-1" d="M369.1,297.74l-2.7-4.17h-.16l-6.4,11v9.16L371,311V299.26A3.89,3.89,0,0,1,369.1,297.74Z" transform="translate(-343.39 -270.6)"/></g></g><g id="Group_13" data-name="Group 13"><g id="Group_12" data-name="Group 12"><path id="Path_37" data-name="Path 37" class="cls-1" d="M380.82,303.78a1.25,1.25,0,0,1-1-.47l-4.43-5.4a3.84,3.84,0,0,1-1.82,1.36v11.64l12.46,3a1.27,1.27,0,0,0,1.54-.94,1,1,0,0,0,0-.3v-8.93Z" transform="translate(-343.39 -270.6)"/></g></g><g id="Group_15" data-name="Group 15"><g id="Group_14" data-name="Group 14"><path id="Path_38" data-name="Path 38" class="cls-1" d="M349.66,297h-6.27v12.33a1.27,1.27,0,0,0,1,1.24l12.93,3.16v-9Z" transform="translate(-343.39 -270.6)"/></g></g></g></svg>