<svg id="Layer_1" data-name="Layer 1" xmlns="http://www.w3.org/2000/svg" viewBox="0 0 41 41"><defs><style>.cls-1{fill:#242424;}</style></defs><path id="Path_27" data-name="Path 27" class="cls-1" d="M383.26,282.07a20.37,20.37,0,0,0-7.46-7.46,20.63,20.63,0,0,0-20.58,0,20.37,20.37,0,0,0-7.46,7.46,20.63,20.63,0,0,0,0,20.58,20.37,20.37,0,0,0,7.46,7.46,20.63,20.63,0,0,0,20.58,0,20.37,20.37,0,0,0,7.46-7.46,20.63,20.63,0,0,0,0-20.58Zm-14.33,23.1a.83.83,0,0,1-.79.86H363a.84.84,0,0,1-.86-.79v-5.19a.82.82,0,0,1,.79-.85h5.19a.82.82,0,0,1,.86.78v5.19Zm6.5-15.77a6.94,6.94,0,0,1-.75,1.61,6,6,0,0,1-1.19,1.28,10.5,10.5,0,0,1-1.23.94c-.3.18-.73.44-1.3.76a4.61,4.61,0,0,0-1.46,1.32,2.54,2.54,0,0,0-.57,1.32.82.82,0,0,1-.79.85H363a.81.81,0,0,1-.85-.78.08.08,0,0,1,0-.07v-1a4.91,4.91,0,0,1,1.4-3.35,9.09,9.09,0,0,1,3.08-2.31,5.26,5.26,0,0,0,1.81-1.2,2.37,2.37,0,0,0,.54-1.63,2,2,0,0,0-1-1.57,3.88,3.88,0,0,0-2.28-.69,3.82,3.82,0,0,0-2.3.64,13,13,0,0,0-2.3,2.45.81.81,0,0,1-.67.32.74.74,0,0,1-.51-.16l-3.51-2.67a.75.75,0,0,1-.27-1,.56.56,0,0,1,.05-.08,10.91,10.91,0,0,1,9.9-5.69,10.43,10.43,0,0,1,8.24,4.2,7.1,7.1,0,0,1,1.48,4.35,6.91,6.91,0,0,1-.33,2.16Z" transform="translate(-345.01 -271.86)"/></svg>