<svg id="Layer_1" data-name="Layer 1" xmlns="http://www.w3.org/2000/svg" viewBox="0 0 50.6 46.32"><defs><style>.cls-1{fill:#242424;}</style></defs><g id="imbalanced-scale"><path id="Path_68" data-name="Path 68" class="cls-1" d="M389.09,285h0L382,272.62l.15,0a1.39,1.39,0,0,0,1.1-1.36v-.64a1.39,1.39,0,0,0-1.39-1.39,1.36,1.36,0,0,0-.29,0l-32.72,7.06a1.4,1.4,0,0,0-1.1,1.37v.63a1.38,1.38,0,0,0,1.39,1.38h.22l-7.45,13h-1.71c0,4.41,4.65,8,10.39,8s10.4-3.59,10.4-8h-1.46l-7.75-13.51,12-2.58v35.92c-5.82.45-7.23,3-7.23,3h18s-1.41-2.6-7.26-3V275.81l10.84-2.34L371.49,285H370c0,4.42,4.65,8,10.39,8s10.39-3.58,10.39-8Zm-44.77,7.66,6.41-11.17,6.4,11.17ZM373.89,285l6.41-11.17L386.7,285Z" transform="translate(-340.21 -269.2)"/></g></svg>