<svg id="Layer_1" data-name="Layer 1" xmlns="http://www.w3.org/2000/svg" viewBox="0 0 38.01 37.87"><defs><style>.cls-1{fill:#242424;}</style></defs><polygon class="cls-1" points="23.33 23.19 19.33 25.38 14.93 23.19 14.93 30.52 9.05 30.52 9.05 31.99 19.27 37.87 29.49 31.99 29.49 30.52 23.33 30.52 23.33 23.19"/><polygon class="cls-1" points="14.76 14.68 18.76 12.49 23.16 14.68 23.16 7.35 29.04 7.35 29.04 5.88 18.82 0 8.6 5.88 8.6 7.35 14.76 7.35 14.76 14.68"/><polygon class="cls-1" points="14.67 23.19 12.49 19.19 14.67 14.79 7.35 14.79 7.35 8.91 5.88 8.91 0 19.13 5.88 29.35 7.35 29.35 7.35 23.19 14.67 23.19"/><polygon class="cls-1" points="23.33 14.68 25.52 18.68 23.33 23.08 30.66 23.08 30.66 28.95 32.13 28.95 38.01 18.73 32.13 8.52 30.66 8.52 30.66 14.68 23.33 14.68"/></svg>